<?xml version="1.0" encoding="utf-8"?>
<!-- Generator: Adobe Illustrator 24.1.0, SVG Export Plug-In . SVG Version: 6.00 Build 0)  -->
<svg version="1.1" id="Layer_1" xmlns="http://www.w3.org/2000/svg" xmlns:xlink="http://www.w3.org/1999/xlink" x="0px" y="0px"
	 viewBox="0 0 1366 768" style="enable-background:new 0 0 1366 768;" xml:space="preserve">
<style type="text/css">
	.st0{fill:#009999;}
	.st1{fill:#DE4F55;}
	.st2{fill:#FFCC3B;}
	.st3{fill:#F0872B;}
</style>
<g>
	<path class="st0" d="M156.4,74.5l-13.9,27c0,0,8.5,3.5,15.5,3.5C156,98,156.4,74.5,156.4,74.5z"/>
</g>
<g>
	<path class="st0" d="M430.2,41.8l-1.1,30.4c0,0,9.2-0.4,15.5-3.4C439.8,63.3,430.2,41.8,430.2,41.8z"/>
</g>
<g>
	<path class="st0" d="M647.3,63.9l-13.9,17.8c0,0,8.5,2.3,15.5,2.3C646.9,79.4,647.3,63.9,647.3,63.9z"/>
</g>
<g>
	<path class="st0" d="M979.8,129.8l-2.9,30.2c0,0,9.2,0.1,15.7-2.5C988.1,151.8,979.8,129.8,979.8,129.8z"/>
</g>
<g>
	<path class="st1" d="M709.4,115.6c-6.3-0.2-10.4-0.7-15.1-2.4c2.2-2.8,13-27,13-27L709.4,115.6z"/>
</g>
<g>
	<path class="st1" d="M221.5,108.2c-6.3,0.6-10.4,0.6-15.3-0.5c1.8-3,9.6-28.4,9.6-28.4L221.5,108.2z"/>
</g>
<g>
	<path class="st1" d="M390.6,75.1c-5.7,2.7-9.5,4.2-14.3,5.2c1.1-2.8,3.2-23.5,3.2-23.5L390.6,75.1z"/>
</g>
<g>
	<path class="st1" d="M1260.9,128c-4.3,3.8-7.2,4.8-11,4.9c0.5-2.8-0.9-26.4-0.9-26.4L1260.9,128z"/>
</g>
<g>
	<path class="st2" d="M1136.4,124.4c0,0-3.4,30.6-2.9,30.2c2.5,0.4,9,0.9,15.5-1.6C1146,151,1136.4,124.4,1136.4,124.4z"/>
</g>
<g>
	<path class="st2" d="M867,119.1c0,0-14,21.1-13.4,20.9c2.2,0.9,8.1,3,15.1,2.9C866.6,140.7,867,119.1,867,119.1z"/>
</g>
<g>
	<path class="st2" d="M549.8,11.9c0,0-14,21.1-13.4,20.9c2.2,0.9,8.1,3,15.1,2.9C549.4,33.5,549.8,11.9,549.8,11.9z"/>
</g>
<g>
	<path class="st2" d="M37.8,45.5c0,0-14,21.1-13.4,20.9c2.2,0.9,8.1,3,15.1,2.9C37.3,67.1,37.8,45.5,37.8,45.5z"/>
</g>
<g>
	<path class="st3" d="M482.1,23.5c0,0,3.8,25,4.1,24.5c2.3-0.8,8.8-7,13.1-8C499,39,482.1,23.5,482.1,23.5z"/>
</g>
<g>
	<path class="st3" d="M761.8,102c0,0-12.9,21.8-12.3,21.6c2.3,0.8,11.3,0.1,15.2,2.1C765.1,124.7,761.8,102,761.8,102z"/>
</g>
<g>
	<path class="st3" d="M1047,130.7c0,0-7.1,24.3-6.6,24c2.4,0.2,11-2.7,15.3-1.7C1055.9,151.9,1047,130.7,1047,130.7z"/>
</g>
<g>
	<path class="st3" d="M297.8,72.1c0,0,0.2,28.9,0.6,28.5c2.5-0.1,10.3-4.7,14.9-4.3C313.2,95,297.8,72.1,297.8,72.1z"/>
</g>
<g>
	<path class="st0" d="M1026,133.8c-69.8,0-140.2-5.8-206.5-17.4C697.2,95.1,599.6,56.4,537.1,4.4C453.5,42,372.3,66.1,295.7,76
		c-61.7,8-120.6,6.9-175-3.3C27.9,55.3,3,32,0,30v-5c14,8,30.2,25.7,122,42.8C175.9,77.9,234.2,79,295.4,71
		C371.8,61.1,449.5,38.7,533,1h4h4c61.7,51.9,157.1,89.2,279.4,110.5c112.1,19.6,235.6,19.9,348.7,8.8C1264,111,1366,71,1366,71v5
		c0,0-84,38-196.3,49.3C1123,129.9,1074.7,133.8,1026,133.8z"/>
</g>
</svg>
