<?xml version="1.0" encoding="utf-8"?>
<!-- Generator: Adobe Illustrator 24.1.0, SVG Export Plug-In . SVG Version: 6.00 Build 0)  -->
<svg version="1.1" id="Layer_1" xmlns="http://www.w3.org/2000/svg" xmlns:xlink="http://www.w3.org/1999/xlink" x="0px" y="0px"
	 viewBox="0 0 1366 768" style="enable-background:new 0 0 1366 768;" xml:space="preserve">
<style type="text/css">
	.st0{fill:#009999;}
	.st1{fill:#DE4F55;}
	.st2{fill:#FFCC3B;}
	.st3{fill:#F0872B;}
	.st4{opacity:0.19;}
</style>
<g id="Layer_1">
	<g>
		<g>
			<path class="st0" d="M1209.6,74.5l13.9,27c0,0-8.5,3.5-15.5,3.5C1210,98,1209.6,74.5,1209.6,74.5z"/>
		</g>
		<g>
			<path class="st0" d="M935.8,41.8l1.1,30.4c0,0-9.2-0.4-15.5-3.4C926.2,63.3,935.8,41.8,935.8,41.8z"/>
		</g>
		<g>
			<path class="st0" d="M718.7,63.9l13.9,17.8c0,0-8.5,2.3-15.5,2.3C719.1,79.4,718.7,63.9,718.7,63.9z"/>
		</g>
		<g>
			<path class="st0" d="M386.2,129.8l2.9,30.2c0,0-9.2,0.1-15.7-2.5C377.9,151.8,386.2,129.8,386.2,129.8z"/>
		</g>
		<g>
			<path class="st1" d="M656.6,115.6c6.3-0.2,10.4-0.7,15.1-2.4c-2.2-2.8-13-27-13-27L656.6,115.6z"/>
		</g>
		<g>
			<path class="st1" d="M1144.5,108.2c6.3,0.6,10.4,0.6,15.3-0.5c-1.8-3-9.6-28.4-9.6-28.4L1144.5,108.2z"/>
		</g>
		<g>
			<path class="st1" d="M975.4,75.1c5.7,2.7,9.5,4.2,14.3,5.2c-1.1-2.8-3.2-23.5-3.2-23.5L975.4,75.1z"/>
		</g>
		<g>
			<path class="st1" d="M105.1,128c4.3,3.8,7.2,4.8,11,4.9c-0.5-2.8,0.9-26.4,0.9-26.4L105.1,128z"/>
		</g>
		<g>
			<path class="st2" d="M229.6,124.4c0,0,3.4,30.6,2.9,30.2c-2.5,0.4-9,0.9-15.5-1.6C220,151,229.6,124.4,229.6,124.4z"/>
		</g>
		<g>
			<path class="st2" d="M499,119.1c0,0,14,21.1,13.4,20.9c-2.2,0.9-8.1,3-15.1,2.9C499.4,140.7,499,119.1,499,119.1z"/>
		</g>
		<g>
			<path class="st2" d="M816.2,11.9c0,0,14,21.1,13.4,20.9c-2.2,0.9-8.1,3-15.1,2.9C816.6,33.5,816.2,11.9,816.2,11.9z"/>
		</g>
		<g>
			<path class="st2" d="M1328.2,45.5c0,0,14,21.1,13.4,20.9c-2.2,0.9-8.1,3-15.1,2.9C1328.7,67.1,1328.2,45.5,1328.2,45.5z"/>
		</g>
		<g>
			<path class="st3" d="M883.9,23.5c0,0-3.8,25-4.1,24.5c-2.3-0.8-8.8-7-13.1-8C867,39,883.9,23.5,883.9,23.5z"/>
		</g>
		<g>
			<path class="st3" d="M604.2,102c0,0,12.9,21.8,12.3,21.6c-2.3,0.8-11.3,0.1-15.2,2.1C600.9,124.7,604.2,102,604.2,102z"/>
		</g>
		<g>
			<path class="st3" d="M319,130.7c0,0,7.1,24.3,6.6,24c-2.4,0.2-11-2.7-15.3-1.7C310.1,151.9,319,130.7,319,130.7z"/>
		</g>
		<g>
			<path class="st3" d="M1068.2,72.1c0,0-0.2,28.9-0.6,28.5c-2.5-0.1-10.3-4.7-14.9-4.3C1052.8,95,1068.2,72.1,1068.2,72.1z"/>
		</g>
		<g>
			<path class="st0" d="M340,133.8c69.8,0,140.2-5.8,206.5-17.4c122.3-21.3,219.9-60.1,282.4-112C912.5,42,993.7,66.1,1070.3,76
				c61.7,8,120.6,6.9,175-3.3C1338.1,55.3,1363,32,1366,30v-5c-14,8-30.2,25.7-122,42.8c-53.9,10.1-112.2,11.1-173.4,3.2
				C994.2,61.1,916.5,38.7,833,1h-4h-4c-61.7,51.9-157.1,89.2-279.4,110.5c-112.1,19.6-235.6,19.9-348.7,8.8C102,111,0,71,0,71l0,5
				c0,0,84,38,196.3,49.3C243,129.9,291.3,133.8,340,133.8z"/>
		</g>
	</g>
	<g class="st4">
		<g>
			<path d="M1209.6,74.5l13.9,27c0,0-8.5,3.5-15.5,3.5C1210,98,1209.6,74.5,1209.6,74.5z"/>
		</g>
		<g>
			<path d="M935.8,41.8l1.1,30.4c0,0-9.2-0.4-15.5-3.4C926.2,63.3,935.8,41.8,935.8,41.8z"/>
		</g>
		<g>
			<path d="M718.7,63.9l13.9,17.8c0,0-8.5,2.3-15.5,2.3C719.1,79.4,718.7,63.9,718.7,63.9z"/>
		</g>
		<g>
			<path d="M386.2,129.8l2.9,30.2c0,0-9.2,0.1-15.7-2.5C377.9,151.8,386.2,129.8,386.2,129.8z"/>
		</g>
		<g>
			<path d="M656.6,115.6c6.3-0.2,10.4-0.7,15.1-2.4c-2.2-2.8-13-27-13-27L656.6,115.6z"/>
		</g>
		<g>
			<path d="M1144.5,108.2c6.3,0.6,10.4,0.6,15.3-0.5c-1.8-3-9.6-28.4-9.6-28.4L1144.5,108.2z"/>
		</g>
		<g>
			<path d="M975.4,75.1c5.7,2.7,9.5,4.2,14.3,5.2c-1.1-2.8-3.2-23.5-3.2-23.5L975.4,75.1z"/>
		</g>
		<g>
			<path d="M105.1,128c4.3,3.8,7.2,4.8,11,4.9c-0.5-2.8,0.9-26.4,0.9-26.4L105.1,128z"/>
		</g>
		<g>
			<path d="M229.6,124.4c0,0,3.4,30.6,2.9,30.2c-2.5,0.4-9,0.9-15.5-1.6C220,151,229.6,124.4,229.6,124.4z"/>
		</g>
		<g>
			<path d="M499,119.1c0,0,14,21.1,13.4,20.9c-2.2,0.9-8.1,3-15.1,2.9C499.4,140.7,499,119.1,499,119.1z"/>
		</g>
		<g>
			<path d="M816.2,11.9c0,0,14,21.1,13.4,20.9c-2.2,0.9-8.1,3-15.1,2.9C816.6,33.5,816.2,11.9,816.2,11.9z"/>
		</g>
		<g>
			<path d="M1328.2,45.5c0,0,14,21.1,13.4,20.9c-2.2,0.9-8.1,3-15.1,2.9C1328.7,67.1,1328.2,45.5,1328.2,45.5z"/>
		</g>
		<g>
			<path d="M883.9,23.5c0,0-3.8,25-4.1,24.5c-2.3-0.8-8.8-7-13.1-8C867,39,883.9,23.5,883.9,23.5z"/>
		</g>
		<g>
			<path d="M604.2,102c0,0,12.9,21.8,12.3,21.6c-2.3,0.8-11.3,0.1-15.2,2.1C600.9,124.7,604.2,102,604.2,102z"/>
		</g>
		<g>
			<path d="M319,130.7c0,0,7.1,24.3,6.6,24c-2.4,0.2-11-2.7-15.3-1.7C310.1,151.9,319,130.7,319,130.7z"/>
		</g>
		<g>
			<path d="M1068.2,72.1c0,0-0.2,28.9-0.6,28.5c-2.5-0.1-10.3-4.7-14.9-4.3C1052.8,95,1068.2,72.1,1068.2,72.1z"/>
		</g>
		<g>
			<path d="M340,133.8c69.8,0,140.2-5.8,206.5-17.4c122.3-21.3,219.9-60.1,282.4-112C912.5,42,993.7,66.1,1070.3,76
				c61.7,8,120.6,6.9,175-3.3C1338.1,55.3,1363,32,1366,30v-5c-14,8-30.2,25.7-122,42.8c-53.9,10.1-112.2,11.1-173.4,3.2
				C994.2,61.1,916.5,38.7,833,1h-4h-4c-61.7,51.9-157.1,89.2-279.4,110.5c-112.1,19.6-235.6,19.9-348.7,8.8C102,111,0,71,0,71l0,5
				c0,0,84,38,196.3,49.3C243,129.9,291.3,133.8,340,133.8z"/>
		</g>
	</g>
</g>
</svg>
